<?xml version="1.0" encoding="UTF-8"?>
<svg id="Layer_1" data-name="Layer 1" xmlns="http://www.w3.org/2000/svg" xmlns:xlink="http://www.w3.org/1999/xlink" viewBox="0 0 124.32 177.63">
  <defs>
    <style>
      .cls-1 {
        fill: url(#linear-gradient);
      }
    </style>
    <linearGradient id="linear-gradient" x1="0" y1="88.82" x2="124.32" y2="88.82" gradientUnits="userSpaceOnUse">
      <stop offset="0" stop-color="#fa55ff"/>
      <stop offset=".11" stop-color="#f558ff"/>
      <stop offset=".24" stop-color="#e761ff"/>
      <stop offset=".37" stop-color="#d170ff"/>
      <stop offset=".51" stop-color="#b186ff"/>
      <stop offset=".65" stop-color="#89a1ff"/>
      <stop offset=".79" stop-color="#57c3ff"/>
      <stop offset=".93" stop-color="#1deaff"/>
      <stop offset="1" stop-color="aqua"/>
    </linearGradient>
  </defs>
  <path class="cls-1" d="M123.77,42.9L104.64,0c-1.23,2.38-2.48,4.1-3.31,5.14-4.26,5.38-9.54,8.38-15.8,11.86-1.19.66-1.23.62-3.27,1.74-8.16,4.47-15.84,9.1-23.26,13.59-8.88,5.36-17.34,10.48-26.54,15.31-2.94,1.07-5.75,2.63-8.34,4.81-9.09,7.62-10.23,22.65-6.67,33.62h-.01s19.42,55.47,19.42,55.47h0s0,.03.01.04c3.1,8.51,1.04,17.8-5.13,23.13-4.1,3.54-10.71,5.61-16.08,5.05-2.01-.21-4.75-.91-6.35-3.01-1.35-1.78-1.83-4.47-1.34-7.56.74-4.65,3.56-9.29,7.18-11.81,3.98-2.77,8.58-2.8,10.97-2.58,2.14.2,4.04-1.37,4.24-3.51.2-2.14-1.37-4.04-3.51-4.24-5.96-.56-11.69.83-16.15,3.93-5.36,3.73-9.36,10.24-10.43,16.98-.82,5.21.18,9.99,2.82,13.48,2.6,3.42,6.65,5.51,11.73,6.05.84.09,1.7.13,2.57.13,6.84,0,14.36-2.67,19.41-7.03,8.59-7.41,11.55-20.12,7.37-31.63h0s-19.33-55.23-19.33-55.23h0c-3.64-11.09-.53-21.33,4.24-25.33.41-.34.83-.67,1.26-.97,1.73-.86,3.44-1.73,5.12-2.61,10.06-3.47,23.08.21,34.83,3.52,4.71,1.33,9.17,2.59,13.33,3.38,2.53.48,7.51,1.26,13.18,1.27v55.99c-.02.19-.03.39-.02.59,0,.17.01.34.02.5v.78h.01c0,8.53-4.59,16.2-11.69,19.34-4.95,2.19-11.88,2.24-16.85.13-1.87-.79-4.28-2.25-5.19-4.73-.77-2.1-.44-4.81.93-7.62,2.06-4.23,6.11-7.84,10.32-9.2,4.62-1.48,9.03-.17,11.25.74,1.99.82,4.26-.13,5.08-2.12.82-1.99-.13-4.26-2.12-5.08-5.53-2.28-11.43-2.62-16.6-.95-6.22,2-11.94,7.06-14.93,13.2-2.31,4.74-2.75,9.61-1.24,13.72,1.48,4.03,4.75,7.21,9.46,9.21,3.38,1.43,7.32,2.15,11.28,2.15,4.12,0,8.25-.78,11.76-2.33,10.16-4.49,16.64-15.4,16.32-27.33v-57.54c6.1-.91,12.11-3.13,16.13-7.84,1.77-2.08,4.84-7.67,3.02-11.73ZM79.2,29.39c2.59.58,6.17,1.17,10.07,1.17s8.06-.59,11.86-2.35h0s.08-.04.08-.04c2.17-1.01,4.05-2.35,5.64-3.98l2.35,5.25c-.2.29-.39.53-.54.7-1.65,1.84-3.97,3.27-6.85,4.24l-.12.04c-9.19,3.05-21.13.85-24.57.11-1.51-.33-3.08-.73-4.69-1.18,2.23-1.32,4.48-2.64,6.77-3.96ZM85.99,25.57c1.06-.58,2.11-1.13,3.16-1.68,4.72-2.48,9.56-5.02,13.44-9.18l2.73,6.09c-1.48,1.81-3.34,3.26-5.56,4.3h0s-.07.03-.07.03c-5.15,2.39-11.2,2.3-15.88,1.65.72-.4,1.45-.81,2.18-1.21ZM68.43,35.74c2.78.83,5.44,1.57,7.97,2.12,2.23.48,7.81,1.54,14.09,1.54,4.03,0,8.34-.43,12.24-1.73l.12-.04c3.25-1.09,5.9-2.69,7.9-4.74l2.37,5.28c-.27.44-.53.8-.75,1.06-2.3,2.69-5.93,4.56-10.79,5.54l-.1.02c-8.21,1.63-17.09.28-20.52-.38-3.88-.74-8.18-1.95-12.72-3.23-1.99-.56-4.01-1.13-6.05-1.68.28-.17.56-.34.85-.51,1.79-1.08,3.59-2.17,5.4-3.26ZM114.83,49.57c-3.45,4.04-13.3,7.65-29.72,4.52-3.83-.73-8.12-1.94-12.67-3.22-6.63-1.87-13.96-3.94-21.24-4.8,2.33-1.37,4.63-2.74,6.9-4.11,3.1.77,6.19,1.64,9.21,2.49,4.62,1.3,8.99,2.54,13.01,3.3,2.35.45,7.13,1.21,12.6,1.21,2.96,0,6.11-.22,9.2-.83.06-.01.12-.02.19-.04,5.45-1.11,9.62-3.26,12.41-6.38l1.84,4.11c-.06.81-.91,2.79-1.73,3.75Z"/>
</svg>